<?xml version="1.0" encoding="UTF-8"?>
<svg id="Camada_2" data-name="Camada 2" xmlns="http://www.w3.org/2000/svg" xmlns:xlink="http://www.w3.org/1999/xlink" viewBox="0 0 335.02 265.04">
  <defs>
    <style>
      .cls-1 {
        fill: #fff;
      }

      .cls-2 {
        fill: url(#Gradiente_sem_nome_142);
      }
    </style>
    <linearGradient id="Gradiente_sem_nome_142" data-name="Gradiente sem nome 142" x1="0" y1="132.52" x2="335.02" y2="132.52" gradientUnits="userSpaceOnUse">
      <stop offset="0" stop-color="#91d0d3"/>
      <stop offset="1" stop-color="#40bdec"/>
    </linearGradient>
  </defs>
  <g id="Camada_9" data-name="Camada 9">
    <path class="cls-2" d="M74.37,251.82c16.25-47.43-10.06-72.82-17.53-81.83-6.23-7.51-21.1-18.09-31.76-30.34C14.42,127.39-.77,106.97.03,79.17,1.06,43.34,34.18,3.77,78.1.3c31.55-2.49,62.5,14.14,80.46,42.36,0,0,3.73,6.66,5.86,6.93s16.52-15.45,17.32-17.05S208.38-1.52,253.94.06c45.56,1.58,85.26,46.07,80.73,89.77-4.53,43.7-32.77,96.72-145.47,164.92-21.69,11.99-43.96,0-43.96,0,0,0-9.06-4.8-14.65-9.86s-14.12-.53-14.12-.53c0,0-22.91,17.05-26.64,18.65-5.33,2.93-17.32,5.06-15.45-11.19Z"/>
    <path class="cls-1" d="M52.34,104.39h65.54s12.79.71,17.76,13.85c8.88,13.14,9.95,16.7,9.95,16.7,0,0,3.91,9.06,10.12,1.07,6.39-10.12,35.52-78.69,35.52-78.69,0,0,11.37-15.45,23.09,0,7.46,18.83,21.14,66.43,21.14,66.43,0,0,2.84,4.8,5.15,0s9.06-18.12,19.18-20.07c0,0,8.53-2.13,11.9-.89,1.42-2.31.4-1.95.89-5.68s5.15-14.57,20.07-13.68,18.47,13.85,17.76,20.43-4.44,17.41-17.58,19.01-13.41-2.31-13.85-3.91-6.31-4.53-12.08-.18c-10.63,11.41-17.76,25.58-17.76,25.58,0,0-14.57,20.6-27.71-4.62-7.1-23.98-17.58-52.4-17.58-52.4,0,0-1.95-3.91-4.09.18-3.91,5.68-30.37,65.37-30.37,65.37,0,0-16.34,25.4-37.12-2.49-15.63-29.49-16.69-27.21-22.56-27.14l-57.37.68s-9.77-1.07-9.77-10.12,9.77-9.41,9.77-9.41Z"/>
  </g>
</svg>