<?xml version="1.0" encoding="UTF-8"?>
<svg id="Camada_2" data-name="Camada 2" xmlns="http://www.w3.org/2000/svg" xmlns:xlink="http://www.w3.org/1999/xlink" viewBox="0 0 384.8 163.25">
  <defs>
    <style>
      .cls-1 {
        fill: #fff;
      }

      .cls-2 {
        font-size: 42.44px;
      }

      .cls-2, .cls-3, .cls-4 {
        font-family: CocogooseProTrial-Bold, CocogooseProTrial;
        font-weight: 700;
      }

      .cls-2, .cls-4 {
        fill: #40bdec;
      }

      .cls-5 {
        fill: url(#Gradiente_sem_nome_142);
      }

      .cls-6 {
        letter-spacing: -.04em;
      }

      .cls-3 {
        fill: #3f4b48;
      }

      .cls-3, .cls-4 {
        font-size: 71.31px;
      }
    </style>
    <linearGradient id="Gradiente_sem_nome_142" data-name="Gradiente sem nome 142" x1="0" y1="75.23" x2="190.2" y2="75.23" gradientUnits="userSpaceOnUse">
      <stop offset="0" stop-color="#91d0d3"/>
      <stop offset="1" stop-color="#40bdec"/>
    </linearGradient>
  </defs>
  <g id="Logo_clinical_black_aplicação_1">
    <text class="cls-3" transform="translate(247.36 88.96)"><tspan x="0" y="0">bot</tspan></text>
    <text class="cls-2" transform="translate(202.73 133.63)"><tspan x="0" y="0">clini</tspan><tspan class="cls-6" x="104.68" y="0">c</tspan><tspan x="129.68" y="0">al</tspan></text>
    <text class="cls-4" transform="translate(197.1 88.96)"><tspan x="0" y="0">ê</tspan></text>
    <path class="cls-5" d="M42.22,142.96c9.23-26.92-5.71-41.34-9.95-46.46-3.53-4.27-11.98-10.27-18.03-17.23C8.19,72.32-.44,60.73.02,44.94.6,24.61,19.4,2.14,44.34.17c17.91-1.41,35.48,8.03,45.68,24.05,0,0,2.12,3.78,3.33,3.93s9.38-8.77,9.83-9.68S118.3-.86,144.17.03s48.4,26.16,45.83,50.96c-2.57,24.81-18.61,54.91-82.59,93.63-12.31,6.81-24.96,0-24.96,0,0,0-5.14-2.72-8.32-5.6s-8.02-.3-8.02-.3c0,0-13.01,9.68-15.13,10.59-3.03,1.66-9.83,2.87-8.77-6.35Z"/>
    <path class="cls-1" d="M29.71,59.26h37.21s7.26.4,10.08,7.87c5.04,7.46,5.65,9.48,5.65,9.48,0,0,2.22,5.14,5.75.61,3.63-5.75,20.17-44.67,20.17-44.67,0,0,6.45-8.77,13.11,0,4.24,10.69,12,37.71,12,37.71,0,0,1.61,2.72,2.92,0s5.14-10.29,10.89-11.39c0,0,4.84-1.21,6.76-.5.81-1.31.23-1.11.5-3.23s2.92-8.27,11.39-7.76,10.49,7.87,10.08,11.6-2.52,9.88-9.98,10.79-7.61-1.31-7.87-2.22-3.58-2.57-6.86-.1c-6.03,6.48-10.08,14.52-10.08,14.52,0,0-8.27,11.7-15.73-2.62-4.03-13.61-9.98-29.75-9.98-29.75,0,0-1.11-2.22-2.32.1-2.22,3.23-17.24,37.11-17.24,37.11,0,0-9.28,14.42-21.08-1.41-8.87-16.74-9.48-15.45-12.81-15.41s-32.57.39-32.57.39c0,0-5.55-.61-5.55-5.75s5.55-5.34,5.55-5.34Z"/>
  </g>
</svg>